<mxfile host="app.diagrams.net" modified="2024-01-05T15:26:53.044Z" agent="Mozilla/5.0 (Windows NT 10.0; Win64; x64) AppleWebKit/537.36 (KHTML, like Gecko) Chrome/120.0.0.0 Safari/537.36" etag="xwwSDRFfEQU97h1Cbpoa" version="22.1.17" type="github">
  <diagram name="Page-1" id="IeH-06YuGBEWwIVZ6MgL">
    <mxGraphModel dx="1735" dy="1127" grid="1" gridSize="10" guides="1" tooltips="1" connect="1" arrows="1" fold="1" page="1" pageScale="1" pageWidth="827" pageHeight="1169" math="0" shadow="0">
      <root>
        <mxCell id="0" />
        <mxCell id="1" parent="0" />
        <mxCell id="sTM9K41NyHMilLDfEMmr-1" value="GoBoard.js" style="ellipse;whiteSpace=wrap;html=1;aspect=fixed;fillColor=#d5e8d4;strokeColor=#82b366;fontFamily=Verdana;labelBackgroundColor=none;" parent="1" vertex="1">
          <mxGeometry x="570" y="510" width="100" height="100" as="geometry" />
        </mxCell>
        <mxCell id="sTM9K41NyHMilLDfEMmr-2" value="Colors" style="swimlane;fontStyle=0;childLayout=stackLayout;horizontal=1;startSize=30;horizontalStack=0;resizeParent=1;resizeParentMax=0;resizeLast=0;collapsible=1;marginBottom=0;whiteSpace=wrap;html=1;" parent="1" vertex="1">
          <mxGeometry x="1241" y="690" width="120" height="150" as="geometry">
            <mxRectangle x="590" y="390" width="80" height="30" as="alternateBounds" />
          </mxGeometry>
        </mxCell>
        <mxCell id="sTM9K41NyHMilLDfEMmr-3" value="Components" style="text;strokeColor=#82b366;fillColor=#d5e8d4;align=left;verticalAlign=middle;spacingLeft=4;spacingRight=4;overflow=hidden;points=[[0,0.5],[1,0.5]];portConstraint=eastwest;rotatable=0;whiteSpace=wrap;html=1;" parent="sTM9K41NyHMilLDfEMmr-2" vertex="1">
          <mxGeometry y="30" width="120" height="30" as="geometry" />
        </mxCell>
        <mxCell id="sTM9K41NyHMilLDfEMmr-4" value="Services" style="text;strokeColor=#6c8ebf;fillColor=#dae8fc;align=left;verticalAlign=middle;spacingLeft=4;spacingRight=4;overflow=hidden;points=[[0,0.5],[1,0.5]];portConstraint=eastwest;rotatable=0;whiteSpace=wrap;html=1;" parent="sTM9K41NyHMilLDfEMmr-2" vertex="1">
          <mxGeometry y="60" width="120" height="30" as="geometry" />
        </mxCell>
        <mxCell id="sTM9K41NyHMilLDfEMmr-5" value="Utils" style="text;strokeColor=#b85450;fillColor=#f8cecc;align=left;verticalAlign=middle;spacingLeft=4;spacingRight=4;overflow=hidden;points=[[0,0.5],[1,0.5]];portConstraint=eastwest;rotatable=0;whiteSpace=wrap;html=1;" parent="sTM9K41NyHMilLDfEMmr-2" vertex="1">
          <mxGeometry y="90" width="120" height="30" as="geometry" />
        </mxCell>
        <mxCell id="sTM9K41NyHMilLDfEMmr-28" value="Assets" style="text;strokeColor=#9673a6;fillColor=#e1d5e7;align=left;verticalAlign=middle;spacingLeft=4;spacingRight=4;overflow=hidden;points=[[0,0.5],[1,0.5]];portConstraint=eastwest;rotatable=0;whiteSpace=wrap;html=1;" parent="sTM9K41NyHMilLDfEMmr-2" vertex="1">
          <mxGeometry y="120" width="120" height="30" as="geometry" />
        </mxCell>
        <mxCell id="sTM9K41NyHMilLDfEMmr-29" value="constants.js" style="ellipse;whiteSpace=wrap;html=1;aspect=fixed;fillColor=#f8cecc;strokeColor=#b85450;" parent="1" vertex="1">
          <mxGeometry x="280" y="730" width="80" height="80" as="geometry" />
        </mxCell>
        <mxCell id="sTM9K41NyHMilLDfEMmr-30" value="" style="endArrow=classic;html=1;rounded=0;exitX=1;exitY=0;exitDx=0;exitDy=0;entryX=0;entryY=1;entryDx=0;entryDy=0;" parent="1" source="sTM9K41NyHMilLDfEMmr-29" target="sTM9K41NyHMilLDfEMmr-1" edge="1">
          <mxGeometry width="50" height="50" relative="1" as="geometry">
            <mxPoint x="580" y="640" as="sourcePoint" />
            <mxPoint x="630" y="590" as="targetPoint" />
          </mxGeometry>
        </mxCell>
        <mxCell id="sTM9K41NyHMilLDfEMmr-31" value="SVGBoard.js" style="ellipse;whiteSpace=wrap;html=1;aspect=fixed;fillColor=#d5e8d4;strokeColor=#82b366;" parent="1" vertex="1">
          <mxGeometry x="560" y="330" width="80" height="80" as="geometry" />
        </mxCell>
        <mxCell id="sTM9K41NyHMilLDfEMmr-32" value="index.html" style="whiteSpace=wrap;html=1;aspect=fixed;fillColor=#b1ddf0;strokeColor=#10739e;" parent="1" vertex="1">
          <mxGeometry x="770" y="290" width="80" height="80" as="geometry" />
        </mxCell>
        <mxCell id="sTM9K41NyHMilLDfEMmr-33" value="" style="endArrow=classic;html=1;rounded=0;exitX=0.5;exitY=1;exitDx=0;exitDy=0;entryX=0.5;entryY=0;entryDx=0;entryDy=0;" parent="1" source="sTM9K41NyHMilLDfEMmr-31" target="sTM9K41NyHMilLDfEMmr-1" edge="1">
          <mxGeometry width="50" height="50" relative="1" as="geometry">
            <mxPoint x="580" y="640" as="sourcePoint" />
            <mxPoint x="630" y="590" as="targetPoint" />
          </mxGeometry>
        </mxCell>
        <mxCell id="sTM9K41NyHMilLDfEMmr-35" value="" style="endArrow=classic;html=1;rounded=0;entryX=-0.003;entryY=0.736;entryDx=0;entryDy=0;entryPerimeter=0;" parent="1" source="XwEsag-w0yq0WjHqDlLs-1" target="IqSlIdKV5zIIvHI6r_ve-4" edge="1">
          <mxGeometry width="50" height="50" relative="1" as="geometry">
            <mxPoint x="708.2842712474621" y="431.71572875253787" as="sourcePoint" />
            <mxPoint x="1050" y="480" as="targetPoint" />
          </mxGeometry>
        </mxCell>
        <mxCell id="XwEsag-w0yq0WjHqDlLs-1" value="BoardButtonSize.js" style="ellipse;whiteSpace=wrap;html=1;fillColor=#d5e8d4;strokeColor=#82b366;" parent="1" vertex="1">
          <mxGeometry x="1020" y="320" width="120" height="60" as="geometry" />
        </mxCell>
        <mxCell id="XwEsag-w0yq0WjHqDlLs-3" value="StyleLoader.js" style="ellipse;whiteSpace=wrap;html=1;fillColor=#f8cecc;strokeColor=#b85450;" parent="1" vertex="1">
          <mxGeometry x="880" y="550" width="100" height="60" as="geometry" />
        </mxCell>
        <mxCell id="XwEsag-w0yq0WjHqDlLs-4" value="" style="endArrow=classic;html=1;rounded=0;exitX=0;exitY=0.5;exitDx=0;exitDy=0;entryX=1;entryY=0.5;entryDx=0;entryDy=0;" parent="1" source="XwEsag-w0yq0WjHqDlLs-3" target="sTM9K41NyHMilLDfEMmr-1" edge="1">
          <mxGeometry width="50" height="50" relative="1" as="geometry">
            <mxPoint x="530" y="640" as="sourcePoint" />
            <mxPoint x="580" y="590" as="targetPoint" />
          </mxGeometry>
        </mxCell>
        <mxCell id="XwEsag-w0yq0WjHqDlLs-5" value="EventListeners.js" style="ellipse;whiteSpace=wrap;html=1;fillColor=#dae8fc;strokeColor=#6c8ebf;" parent="1" vertex="1">
          <mxGeometry x="870" y="450" width="110" height="60" as="geometry" />
        </mxCell>
        <mxCell id="XwEsag-w0yq0WjHqDlLs-6" value="" style="endArrow=classic;html=1;rounded=0;exitX=0;exitY=0.5;exitDx=0;exitDy=0;entryX=0.925;entryY=0.25;entryDx=0;entryDy=0;entryPerimeter=0;" parent="1" source="XwEsag-w0yq0WjHqDlLs-5" target="sTM9K41NyHMilLDfEMmr-1" edge="1">
          <mxGeometry width="50" height="50" relative="1" as="geometry">
            <mxPoint x="530" y="640" as="sourcePoint" />
            <mxPoint x="650" y="530" as="targetPoint" />
          </mxGeometry>
        </mxCell>
        <mxCell id="XwEsag-w0yq0WjHqDlLs-7" value="GhostStoneUtil.js" style="ellipse;whiteSpace=wrap;html=1;fillColor=#f8cecc;strokeColor=#b85450;" parent="1" vertex="1">
          <mxGeometry x="480" y="700" width="110" height="60" as="geometry" />
        </mxCell>
        <mxCell id="XwEsag-w0yq0WjHqDlLs-8" value="" style="endArrow=classic;html=1;rounded=0;exitX=0.648;exitY=-0.105;exitDx=0;exitDy=0;exitPerimeter=0;entryX=0.19;entryY=0.95;entryDx=0;entryDy=0;entryPerimeter=0;" parent="1" source="XwEsag-w0yq0WjHqDlLs-7" target="sTM9K41NyHMilLDfEMmr-1" edge="1">
          <mxGeometry width="50" height="50" relative="1" as="geometry">
            <mxPoint x="530" y="640" as="sourcePoint" />
            <mxPoint x="560" y="720" as="targetPoint" />
          </mxGeometry>
        </mxCell>
        <mxCell id="XwEsag-w0yq0WjHqDlLs-9" value="HandleIntersectionClick.js" style="ellipse;whiteSpace=wrap;html=1;fillColor=#dae8fc;strokeColor=#6c8ebf;" parent="1" vertex="1">
          <mxGeometry x="690" y="780" width="160" height="60" as="geometry" />
        </mxCell>
        <mxCell id="XwEsag-w0yq0WjHqDlLs-10" value="HandleIntersetionHover.js" style="ellipse;whiteSpace=wrap;html=1;fillColor=#dae8fc;strokeColor=#6c8ebf;" parent="1" vertex="1">
          <mxGeometry x="710" y="660" width="160" height="60" as="geometry" />
        </mxCell>
        <mxCell id="XwEsag-w0yq0WjHqDlLs-11" value="" style="endArrow=classic;html=1;rounded=0;entryX=0.756;entryY=0.954;entryDx=0;entryDy=0;entryPerimeter=0;exitX=0.292;exitY=0.072;exitDx=0;exitDy=0;exitPerimeter=0;" parent="1" source="XwEsag-w0yq0WjHqDlLs-9" target="sTM9K41NyHMilLDfEMmr-1" edge="1">
          <mxGeometry width="50" height="50" relative="1" as="geometry">
            <mxPoint x="740" y="845.5" as="sourcePoint" />
            <mxPoint x="660" y="614.5" as="targetPoint" />
          </mxGeometry>
        </mxCell>
        <mxCell id="XwEsag-w0yq0WjHqDlLs-12" value="" style="endArrow=classic;html=1;rounded=0;exitX=0.063;exitY=0.239;exitDx=0;exitDy=0;exitPerimeter=0;" parent="1" source="XwEsag-w0yq0WjHqDlLs-10" target="sTM9K41NyHMilLDfEMmr-1" edge="1">
          <mxGeometry width="50" height="50" relative="1" as="geometry">
            <mxPoint x="650" y="750" as="sourcePoint" />
            <mxPoint x="700" y="700" as="targetPoint" />
          </mxGeometry>
        </mxCell>
        <mxCell id="XwEsag-w0yq0WjHqDlLs-13" value="GameStateManager.js" style="ellipse;whiteSpace=wrap;html=1;fillColor=#dae8fc;strokeColor=#6c8ebf;" parent="1" vertex="1">
          <mxGeometry x="900" y="650" width="140" height="60" as="geometry" />
        </mxCell>
        <mxCell id="XwEsag-w0yq0WjHqDlLs-14" value="" style="endArrow=classic;html=1;rounded=0;exitX=0.079;exitY=0.217;exitDx=0;exitDy=0;exitPerimeter=0;" parent="1" source="XwEsag-w0yq0WjHqDlLs-13" target="sTM9K41NyHMilLDfEMmr-1" edge="1">
          <mxGeometry width="50" height="50" relative="1" as="geometry">
            <mxPoint x="650" y="750" as="sourcePoint" />
            <mxPoint x="700" y="700" as="targetPoint" />
          </mxGeometry>
        </mxCell>
        <mxCell id="XwEsag-w0yq0WjHqDlLs-15" value="" style="endArrow=classic;html=1;rounded=0;entryX=0.771;entryY=0.091;entryDx=0;entryDy=0;exitX=0.302;exitY=0.98;exitDx=0;exitDy=0;exitPerimeter=0;entryPerimeter=0;" parent="1" source="XwEsag-w0yq0WjHqDlLs-13" target="XwEsag-w0yq0WjHqDlLs-9" edge="1">
          <mxGeometry width="50" height="50" relative="1" as="geometry">
            <mxPoint x="1030" y="665" as="sourcePoint" />
            <mxPoint x="510" y="840" as="targetPoint" />
          </mxGeometry>
        </mxCell>
        <mxCell id="XwEsag-w0yq0WjHqDlLs-16" value="PlaceStoneOnBoard.js" style="ellipse;whiteSpace=wrap;html=1;fillColor=#dae8fc;strokeColor=#6c8ebf;" parent="1" vertex="1">
          <mxGeometry x="420" y="860" width="140" height="50" as="geometry" />
        </mxCell>
        <mxCell id="XwEsag-w0yq0WjHqDlLs-17" value="" style="endArrow=classic;html=1;rounded=0;exitX=1;exitY=0.264;exitDx=0;exitDy=0;exitPerimeter=0;entryX=0.236;entryY=0.98;entryDx=0;entryDy=0;entryPerimeter=0;" parent="1" source="XwEsag-w0yq0WjHqDlLs-16" target="XwEsag-w0yq0WjHqDlLs-9" edge="1">
          <mxGeometry width="50" height="50" relative="1" as="geometry">
            <mxPoint x="630" y="750" as="sourcePoint" />
            <mxPoint x="680" y="700" as="targetPoint" />
          </mxGeometry>
        </mxCell>
        <mxCell id="XwEsag-w0yq0WjHqDlLs-18" value="" style="endArrow=classic;html=1;rounded=0;exitX=0.98;exitY=0.782;exitDx=0;exitDy=0;exitPerimeter=0;" parent="1" source="sTM9K41NyHMilLDfEMmr-29" target="XwEsag-w0yq0WjHqDlLs-16" edge="1">
          <mxGeometry width="50" height="50" relative="1" as="geometry">
            <mxPoint x="310" y="860" as="sourcePoint" />
            <mxPoint x="720" y="700" as="targetPoint" />
          </mxGeometry>
        </mxCell>
        <mxCell id="XwEsag-w0yq0WjHqDlLs-19" value="" style="endArrow=classic;html=1;rounded=0;exitX=1.025;exitY=0.35;exitDx=0;exitDy=0;exitPerimeter=0;entryX=0;entryY=0.5;entryDx=0;entryDy=0;" parent="1" source="sTM9K41NyHMilLDfEMmr-29" target="XwEsag-w0yq0WjHqDlLs-7" edge="1">
          <mxGeometry width="50" height="50" relative="1" as="geometry">
            <mxPoint x="670" y="750" as="sourcePoint" />
            <mxPoint x="470" y="750" as="targetPoint" />
          </mxGeometry>
        </mxCell>
        <mxCell id="XwEsag-w0yq0WjHqDlLs-20" value="" style="endArrow=classic;html=1;rounded=0;exitX=0.725;exitY=0.038;exitDx=0;exitDy=0;exitPerimeter=0;entryX=0;entryY=0.75;entryDx=0;entryDy=0;entryPerimeter=0;" parent="1" source="sTM9K41NyHMilLDfEMmr-29" target="sTM9K41NyHMilLDfEMmr-31" edge="1">
          <mxGeometry width="50" height="50" relative="1" as="geometry">
            <mxPoint x="670" y="650" as="sourcePoint" />
            <mxPoint x="720" y="600" as="targetPoint" />
          </mxGeometry>
        </mxCell>
        <mxCell id="XwEsag-w0yq0WjHqDlLs-21" value="" style="endArrow=classic;html=1;rounded=0;exitX=0.74;exitY=0.08;exitDx=0;exitDy=0;exitPerimeter=0;entryX=0;entryY=1;entryDx=0;entryDy=0;" parent="1" source="sTM9K41NyHMilLDfEMmr-1" target="sTM9K41NyHMilLDfEMmr-32" edge="1">
          <mxGeometry width="50" height="50" relative="1" as="geometry">
            <mxPoint x="550" y="510" as="sourcePoint" />
            <mxPoint x="600" y="460" as="targetPoint" />
          </mxGeometry>
        </mxCell>
        <mxCell id="XwEsag-w0yq0WjHqDlLs-24" value="" style="endArrow=classic;html=1;rounded=0;exitX=0.035;exitY=0.294;exitDx=0;exitDy=0;exitPerimeter=0;entryX=1;entryY=0.5;entryDx=0;entryDy=0;curved=0;dashed=1;" parent="1" source="XwEsag-w0yq0WjHqDlLs-9" target="XwEsag-w0yq0WjHqDlLs-7" edge="1">
          <mxGeometry width="50" height="50" relative="1" as="geometry">
            <mxPoint x="710" y="760" as="sourcePoint" />
            <mxPoint x="760" y="710" as="targetPoint" />
          </mxGeometry>
        </mxCell>
        <mxCell id="eg_Josz3ZCCLde00epPz-1" value="SGFUtil.js" style="ellipse;whiteSpace=wrap;html=1;fillColor=#f8cecc;strokeColor=#b85450;" parent="1" vertex="1">
          <mxGeometry x="700" y="930" width="90" height="40" as="geometry" />
        </mxCell>
        <mxCell id="eg_Josz3ZCCLde00epPz-2" value="" style="endArrow=classic;html=1;rounded=0;exitX=0.5;exitY=0;exitDx=0;exitDy=0;entryX=0.419;entryY=1.05;entryDx=0;entryDy=0;entryPerimeter=0;" parent="1" source="eg_Josz3ZCCLde00epPz-1" target="XwEsag-w0yq0WjHqDlLs-9" edge="1">
          <mxGeometry width="50" height="50" relative="1" as="geometry">
            <mxPoint x="890" y="810" as="sourcePoint" />
            <mxPoint x="940" y="760" as="targetPoint" />
          </mxGeometry>
        </mxCell>
        <mxCell id="IqSlIdKV5zIIvHI6r_ve-1" value="SGFDownloadButton.js" style="ellipse;whiteSpace=wrap;html=1;fillColor=#d5e8d4;strokeColor=#82b366;" parent="1" vertex="1">
          <mxGeometry x="1210" y="340" width="140" height="50" as="geometry" />
        </mxCell>
        <mxCell id="IqSlIdKV5zIIvHI6r_ve-2" value="" style="endArrow=classic;html=1;rounded=0;exitX=0.679;exitY=0.014;exitDx=0;exitDy=0;entryX=0.274;entryY=1.079;entryDx=0;entryDy=0;entryPerimeter=0;exitPerimeter=0;" parent="1" source="IqSlIdKV5zIIvHI6r_ve-1" target="IqSlIdKV5zIIvHI6r_ve-4" edge="1">
          <mxGeometry width="50" height="50" relative="1" as="geometry">
            <mxPoint x="950" y="450" as="sourcePoint" />
            <mxPoint x="1160" y="240" as="targetPoint" />
          </mxGeometry>
        </mxCell>
        <mxCell id="IqSlIdKV5zIIvHI6r_ve-3" value="" style="endArrow=classic;html=1;rounded=0;entryX=0.267;entryY=1.007;entryDx=0;entryDy=0;entryPerimeter=0;" parent="1" source="XwEsag-w0yq0WjHqDlLs-13" target="IqSlIdKV5zIIvHI6r_ve-1" edge="1">
          <mxGeometry width="50" height="50" relative="1" as="geometry">
            <mxPoint x="870" y="690" as="sourcePoint" />
            <mxPoint x="920" y="640" as="targetPoint" />
          </mxGeometry>
        </mxCell>
        <mxCell id="IqSlIdKV5zIIvHI6r_ve-4" value="TestTab.js" style="ellipse;whiteSpace=wrap;html=1;fillColor=#d5e8d4;strokeColor=#82b366;" parent="1" vertex="1">
          <mxGeometry x="1270" y="190" width="70" height="50" as="geometry" />
        </mxCell>
        <mxCell id="IqSlIdKV5zIIvHI6r_ve-6" value="GameControlPanel.js" style="ellipse;whiteSpace=wrap;html=1;aspect=fixed;fillColor=#d5e8d4;strokeColor=#82b366;" parent="1" vertex="1">
          <mxGeometry x="1000" y="130" width="130" height="130" as="geometry" />
        </mxCell>
        <mxCell id="IqSlIdKV5zIIvHI6r_ve-9" value="" style="endArrow=classic;html=1;rounded=0;entryX=0.983;entryY=0.743;entryDx=0;entryDy=0;entryPerimeter=0;exitX=0;exitY=0;exitDx=0;exitDy=0;" parent="1" source="IqSlIdKV5zIIvHI6r_ve-4" target="IqSlIdKV5zIIvHI6r_ve-6" edge="1">
          <mxGeometry width="50" height="50" relative="1" as="geometry">
            <mxPoint x="960" y="570" as="sourcePoint" />
            <mxPoint x="1010" y="520" as="targetPoint" />
          </mxGeometry>
        </mxCell>
        <mxCell id="IqSlIdKV5zIIvHI6r_ve-10" value="" style="endArrow=classic;html=1;rounded=0;entryX=1;entryY=0;entryDx=0;entryDy=0;" parent="1" source="IqSlIdKV5zIIvHI6r_ve-6" target="sTM9K41NyHMilLDfEMmr-32" edge="1">
          <mxGeometry width="50" height="50" relative="1" as="geometry">
            <mxPoint x="1000" y="330" as="sourcePoint" />
            <mxPoint x="1050" y="280" as="targetPoint" />
          </mxGeometry>
        </mxCell>
        <mxCell id="_aCDbJowjbYK5j0OoCDy-1" value="HTMLLoader.js" style="ellipse;whiteSpace=wrap;html=1;fillColor=#f8cecc;strokeColor=#b85450;" parent="1" vertex="1">
          <mxGeometry x="1241" y="30" width="120" height="40" as="geometry" />
        </mxCell>
        <mxCell id="_aCDbJowjbYK5j0OoCDy-2" value="" style="endArrow=classic;html=1;rounded=0;exitX=0;exitY=0.5;exitDx=0;exitDy=0;entryX=1.01;entryY=0.262;entryDx=0;entryDy=0;entryPerimeter=0;" parent="1" source="_aCDbJowjbYK5j0OoCDy-1" target="IqSlIdKV5zIIvHI6r_ve-6" edge="1">
          <mxGeometry width="50" height="50" relative="1" as="geometry">
            <mxPoint x="1060" y="510" as="sourcePoint" />
            <mxPoint x="1110" y="460" as="targetPoint" />
          </mxGeometry>
        </mxCell>
        <mxCell id="_aCDbJowjbYK5j0OoCDy-3" value="" style="endArrow=classic;html=1;rounded=0;exitX=0.5;exitY=1;exitDx=0;exitDy=0;entryX=0.692;entryY=0.023;entryDx=0;entryDy=0;entryPerimeter=0;" parent="1" source="_aCDbJowjbYK5j0OoCDy-1" target="IqSlIdKV5zIIvHI6r_ve-4" edge="1">
          <mxGeometry width="50" height="50" relative="1" as="geometry">
            <mxPoint x="1060" y="510" as="sourcePoint" />
            <mxPoint x="1110" y="460" as="targetPoint" />
          </mxGeometry>
        </mxCell>
        <mxCell id="BNSQH5p7iATUA6z0eg3D-7" value="" style="endArrow=classic;html=1;rounded=0;exitX=0.603;exitY=-0.068;exitDx=0;exitDy=0;exitPerimeter=0;entryX=0.199;entryY=0.994;entryDx=0;entryDy=0;entryPerimeter=0;" edge="1" parent="1" source="XwEsag-w0yq0WjHqDlLs-13" target="XwEsag-w0yq0WjHqDlLs-1">
          <mxGeometry width="50" height="50" relative="1" as="geometry">
            <mxPoint x="970" y="510" as="sourcePoint" />
            <mxPoint x="1020" y="460" as="targetPoint" />
          </mxGeometry>
        </mxCell>
      </root>
    </mxGraphModel>
  </diagram>
</mxfile>
